<svg width="400" height="400" viewBox="0 0 400 400" fill="none" xmlns="http://www.w3.org/2000/svg">
<g clip-path="url(#clip0_1_31)">
<path d="M90 0.5H310C359.429 0.5 399.5 40.5705 399.5 90V310C399.5 359.429 359.429 399.5 310 399.5H90C40.5705 399.5 0.5 359.429 0.5 310V90C0.5 40.5705 40.5705 0.5 90 0.5Z" fill="url(#paint0_linear_1_31)" stroke="black"/>
<g filter="url(#filter0_d_1_31)">
<path d="M200 345C282.843 345 350 277.843 350 195C350 112.157 282.843 45 200 45C117.157 45 50 112.157 50 195C50 277.843 117.157 345 200 345Z" stroke="#F5C842" stroke-opacity="0.5" stroke-width="22" shape-rendering="crispEdges"/>
</g>
<path d="M200 345C282.843 345 350 277.843 350 195C350 112.157 282.843 45 200 45C117.157 45 50 112.157 50 195C50 277.843 117.157 345 200 345Z" stroke="#141414" stroke-width="23" stroke-dasharray="28 89.8"/>
<path d="M200 333C276.215 333 338 271.215 338 195C338 118.785 276.215 57 200 57C123.785 57 62 118.785 62 195C62 271.215 123.785 333 200 333Z" stroke="#F5C842" stroke-opacity="0.12" stroke-width="1.5"/>
<path d="M237.31 153.296C236.396 152.381 234.697 151.14 232.214 149.572C229.862 148.004 226.922 146.501 223.394 145.064C219.997 143.627 216.273 142.385 212.222 141.34C208.172 140.164 204.056 139.576 199.874 139.576C192.557 139.576 187.004 140.948 183.214 143.692C179.556 146.436 177.726 150.291 177.726 155.256C177.726 159.045 178.902 162.051 181.254 164.272C183.606 166.493 187.134 168.388 191.838 169.956C196.542 171.524 202.422 173.223 209.478 175.052C218.625 177.273 226.53 180.017 233.194 183.284C239.989 186.42 245.15 190.601 248.678 195.828C252.337 200.924 254.166 207.719 254.166 216.212C254.166 223.66 252.794 230.063 250.05 235.42C247.306 240.647 243.517 244.893 238.682 248.16C233.848 251.427 228.36 253.844 222.218 255.412C216.077 256.849 209.544 257.568 202.618 257.568C195.693 257.568 188.768 256.849 181.842 255.412C174.917 253.975 168.253 251.949 161.85 249.336C155.448 246.592 149.568 243.325 144.21 239.536L156.166 216.212C157.342 217.388 159.433 218.956 162.438 220.916C165.444 222.745 169.102 224.64 173.414 226.6C177.726 228.429 182.43 229.997 187.526 231.304C192.622 232.611 197.784 233.264 203.01 233.264C210.328 233.264 215.881 232.023 219.67 229.54C223.46 227.057 225.354 223.529 225.354 218.956C225.354 214.775 223.852 211.508 220.846 209.156C217.841 206.804 213.66 204.779 208.302 203.08C202.945 201.251 196.608 199.291 189.29 197.2C180.536 194.717 173.218 191.973 167.338 188.968C161.458 185.832 157.081 181.912 154.206 177.208C151.332 172.504 149.894 166.624 149.894 159.568C149.894 150.029 152.116 142.059 156.558 135.656C161.132 129.123 167.273 124.223 174.982 120.956C182.692 117.559 191.25 115.86 200.658 115.86C207.192 115.86 213.333 116.579 219.082 118.016C224.962 119.453 230.45 121.348 235.546 123.7C240.642 126.052 245.216 128.6 249.266 131.344L237.31 153.296Z" fill="black"/>
<g filter="url(#filter1_d_1_31)">
<path d="M233.81 157.296C232.896 156.381 231.197 155.14 228.714 153.572C226.362 152.004 223.422 150.501 219.894 149.064C216.497 147.627 212.773 146.385 208.722 145.34C204.672 144.164 200.556 143.576 196.374 143.576C189.057 143.576 183.504 144.948 179.714 147.692C176.056 150.436 174.226 154.291 174.226 159.256C174.226 163.045 175.402 166.051 177.754 168.272C180.106 170.493 183.634 172.388 188.338 173.956C193.042 175.524 198.922 177.223 205.978 179.052C215.125 181.273 223.03 184.017 229.694 187.284C236.489 190.42 241.65 194.601 245.178 199.828C248.837 204.924 250.666 211.719 250.666 220.212C250.666 227.66 249.294 234.063 246.55 239.42C243.806 244.647 240.017 248.893 235.182 252.16C230.348 255.427 224.86 257.844 218.718 259.412C212.577 260.849 206.044 261.568 199.118 261.568C192.193 261.568 185.268 260.849 178.342 259.412C171.417 257.975 164.753 255.949 158.35 253.336C151.948 250.592 146.068 247.325 140.71 243.536L152.666 220.212C153.842 221.388 155.933 222.956 158.938 224.916C161.944 226.745 165.602 228.64 169.914 230.6C174.226 232.429 178.93 233.997 184.026 235.304C189.122 236.611 194.284 237.264 199.51 237.264C206.828 237.264 212.381 236.023 216.17 233.54C219.96 231.057 221.854 227.529 221.854 222.956C221.854 218.775 220.352 215.508 217.346 213.156C214.341 210.804 210.16 208.779 204.802 207.08C199.445 205.251 193.108 203.291 185.79 201.2C177.036 198.717 169.718 195.973 163.838 192.968C157.958 189.832 153.581 185.912 150.706 181.208C147.832 176.504 146.394 170.624 146.394 163.568C146.394 154.029 148.616 146.059 153.058 139.656C157.632 133.123 163.773 128.223 171.482 124.956C179.192 121.559 187.75 119.86 197.158 119.86C203.692 119.86 209.833 120.579 215.582 122.016C221.462 123.453 226.95 125.348 232.046 127.7C237.142 130.052 241.716 132.6 245.766 135.344L233.81 157.296Z" fill="#EFAB18"/>
</g>
</g>
<defs>
<filter id="filter0_d_1_31" x="35" y="34" width="330" height="330" filterUnits="userSpaceOnUse" color-interpolation-filters="sRGB">
<feFlood flood-opacity="0" result="BackgroundImageFix"/>
<feColorMatrix in="SourceAlpha" type="matrix" values="0 0 0 0 0 0 0 0 0 0 0 0 0 0 0 0 0 0 127 0" result="hardAlpha"/>
<feOffset dy="4"/>
<feGaussianBlur stdDeviation="2"/>
<feComposite in2="hardAlpha" operator="out"/>
<feColorMatrix type="matrix" values="0 0 0 0 0 0 0 0 0 0 0 0 0 0 0 0 0 0 0.25 0"/>
<feBlend mode="normal" in2="BackgroundImageFix" result="effect1_dropShadow_1_31"/>
<feBlend mode="normal" in="SourceGraphic" in2="effect1_dropShadow_1_31" result="shape"/>
</filter>
<filter id="filter1_d_1_31" x="136.71" y="119.86" width="117.956" height="149.708" filterUnits="userSpaceOnUse" color-interpolation-filters="sRGB">
<feFlood flood-opacity="0" result="BackgroundImageFix"/>
<feColorMatrix in="SourceAlpha" type="matrix" values="0 0 0 0 0 0 0 0 0 0 0 0 0 0 0 0 0 0 127 0" result="hardAlpha"/>
<feOffset dy="4"/>
<feGaussianBlur stdDeviation="2"/>
<feComposite in2="hardAlpha" operator="out"/>
<feColorMatrix type="matrix" values="0 0 0 0 0 0 0 0 0 0 0 0 0 0 0 0 0 0 0.25 0"/>
<feBlend mode="normal" in2="BackgroundImageFix" result="effect1_dropShadow_1_31"/>
<feBlend mode="normal" in="SourceGraphic" in2="effect1_dropShadow_1_31" result="shape"/>
</filter>
<linearGradient id="paint0_linear_1_31" x1="0" y1="0" x2="400" y2="400" gradientUnits="userSpaceOnUse">
<stop stop-color="#111111"/>
<stop offset="1" stop-color="#1A1A1A"/>
</linearGradient>
<clipPath id="clip0_1_31">
<rect width="400" height="400" fill="white"/>
</clipPath>
</defs>
</svg>
